<svg id="Layer_1" data-name="Layer 1" xmlns="http://www.w3.org/2000/svg" viewBox="0 0 2400 2400" fill="none" stroke="currentColor" width="28" height="28">
    <defs>
        <style>
                          .cls-1 {
                            fill: none;
                            stroke-miterlimit: 10;
                            stroke-width: 180;
                          }
                        </style>
    </defs>
    <g>
        <path class="cls-1" d="M2216.16,1832,1887,960.37q-3.54-9.75-7.91-19.07c-.08-.17-.15-.34-.23-.5q-1-2.1-2-4.18l-.84-1.69c-.46-.91-.93-1.82-1.4-2.73l-1.59-3-.63-1.13a233.77,233.77,0,0,0-184.61-120.71h-.07c-1.63-.14-3.26-.27-4.9-.37l-1.48-.1c-1.26-.07-2.52-.14-3.78-.19l-2.51-.1-3-.08-3.06,0-1.64,0-1.14,0-3,0-3.15.07-2.13.08c-1.38.06-2.77.12-4.15.2l-.69,0c-117.56,7.06-211.67,101-219,218.51a.76.76,0,0,0,0,.15c-.1,1.6-.18,3.21-.25,4.82,0,.57-.05,1.14-.07,1.71,0,1.19-.07,2.39-.09,3.59,0,.92,0,1.85,0,2.77,0,.56,0,1.12,0,1.67,0,45.94-6.78,87.93-19,126.3-27.87,107.58-85.14,204.24-163.3,281.94-1.48,1.47-3,2.93-4.46,4.38l-1.05,1q-1.89,1.83-3.79,3.65l-1.27,1.21c-1.23,1.16-2.45,2.32-3.69,3.47l-1.28,1.2-3.87,3.57-1.09,1-4.69,4.23-.27.24q-5.15,4.59-10.39,9.07l-.94.81-4.19,3.53-1.35,1.13q-1.93,1.61-3.88,3.2c-.48.4-1,.8-1.45,1.19l-3.92,3.17-1.37,1.1q-2.16,1.73-4.33,3.42l-.95.76q-5.43,4.23-11,8.37l-.64.48c-1.58,1.18-3.17,2.36-4.76,3.52l-1.38,1-4.1,3-1.62,1.16q-2,1.41-4,2.81l-1.63,1.14-4.17,2.88-1.42,1c-1.65,1.12-3.32,2.25-5,3.36l-.62.41q-5.72,3.83-11.54,7.53l-1.37.87-4.36,2.74-1.75,1.09q-2,1.26-4,2.49l-1.87,1.14-4.09,2.45-1.78,1.06-4.48,2.62-1.39.81q-6,3.43-12,6.76l-1.23.67c-1.57.87-3.15,1.72-4.73,2.58l-1.87,1c-1.39.74-2.77,1.48-4.17,2.21l-2.06,1.07q-2,1.07-4.07,2.1L1084,1569l-4.25,2.13c-.63.31-1.25.63-1.88.93q-2.51,1.25-5,2.46l-1.11.54q-3.13,1.51-6.3,3l-.68.32-5.5,2.54-1.9.86-4.35,2-2.21,1c-1.37.61-2.75,1.21-4.12,1.8l-2.29,1-4.15,1.76-2.22.93-4.5,1.85-1.87.76q-6.4,2.6-12.86,5l-1.81.68-4.65,1.74-2.31.84c-1.4.51-2.79,1-4.2,1.52l-2.47.88-4.13,1.44-2.47.85-4.29,1.45-2.3.77-5,1.64-1.54.5q-3.32,1.07-6.65,2.08l-1.38.43-5.26,1.58-2.33.68-4.36,1.27-2.6.74-4.17,1.16-2.64.72L950,1620l-2.56.67q-2.28.6-4.59,1.17l-2.19.56c-2.19.54-4.38,1.08-6.58,1.6l-.22.06c-2.28.54-4.55,1.06-6.83,1.58l-2.18.49-4.69,1-2.61.56c-1.44.31-2.87.61-4.31.9l-2.75.56-4.26.85-2.72.53-4.46.83-2.52.46-5.21.92-1.77.31-7,1.15-1.68.26-5.34.81-2.56.38-4.5.64-2.81.38-4.33.57-2.85.36-4.4.52-2.74.32-4.8.53-2.34.25-7.13.7h0a697.66,697.66,0,0,0,363,101.18q4.35,0,8.67,0l2.87,0,5.78-.11,3.43-.1c1.74,0,3.47-.1,5.2-.17l3.64-.14,5-.22,3.76-.2c1.61-.09,3.21-.17,4.81-.27l3.82-.25,4.74-.32,3.84-.3,4.69-.38,3.85-.34c1.56-.14,3.11-.28,4.67-.44,1.27-.12,2.55-.24,3.82-.38l4.69-.5,3.77-.42,4.75-.56,3.67-.46c1.64-.2,3.27-.42,4.9-.64l3.49-.47,5.42-.79,2.93-.43c2.74-.41,5.47-.85,8.2-1.29l2.75-.47,5.52-.94,3.59-.66,4.64-.85,3.83-.74,4.37-.86c1.32-.26,2.63-.54,3.94-.81s2.82-.58,4.23-.89l4-.87c1.38-.3,2.76-.6,4.14-.92l4-.92,4-1,4.07-1,4-1,4.09-1,3.9-1,4.13-1.1,3.83-1,4.15-1.16,3.73-1.08,4.21-1.22,3.58-1.08c1.44-.44,2.89-.87,4.33-1.32,1-.31,2-.64,3-1,3.9-1.23,7.8-2.48,11.68-3.78l.53-.17c1.62-.54,3.24-1.1,4.86-1.66,1-.33,1.93-.65,2.89-1l4.59-1.62,3.12-1.11c1.5-.54,3-1.1,4.49-1.65l3.17-1.17,4.45-1.69,3.15-1.21,4.45-1.75,3.11-1.24c1.48-.59,3-1.19,4.44-1.8,1-.42,2-.83,3-1.26L1473,1686l3-1.26,4.53-2,2.81-1.24c1.55-.68,3.09-1.36,4.63-2.06l2.6-1.18,4.79-2.2,2.22-1c1.71-.81,3.42-1.61,5.13-2.43l1.31-.64q13-6.24,25.65-13l1.18-.63c1.76-.94,3.51-1.9,5.26-2.86.6-.33,1.21-.65,1.81-1,1.66-.91,3.31-1.84,5-2.76l2-1.15,4.82-2.76,2.13-1.23,4.74-2.78,2.14-1.28q2.37-1.41,4.71-2.83l2.1-1.28,4.73-2.92,2-1.24,4.81-3,1.77-1.14q2.49-1.61,5-3.22l1.42-.94c1.76-1.16,3.52-2.32,5.27-3.5l.7-.47q15.6-10.52,30.62-21.84l.41-.31q2.64-2,5.26-4h0L1779,1997.1c45.59,120.73,180.41,181.64,301.14,136.05S2261.75,1952.74,2216.16,1832Z" />
        <circle class="cls-1" cx="1667.32" cy="483.66" r="233.66" />
        <circle class="cls-1" cx="732.68" cy="483.66" r="233.66" transform="translate(-127.41 659.74) rotate(-45)" />
        <path class="cls-1" d="M782.82,1589.22c2.11-.47,4.23-1,6.38-1.45l.73-.17,6-1.4,1.43-.34c2.19-.52,4.39-1,6.62-1.6l1.18-.29,6-1.5,1.25-.31q3.42-.86,6.88-1.76l1.42-.37q3.19-.83,6.44-1.69l.88-.23q3.56-.94,7.16-1.94l1.55-.42c2.43-.67,4.86-1.34,7.32-2h.06q3.72-1,7.5-2.15l1.57-.45,7.58-2.24.42-.12,7.34-2.22,1.49-.46,7.72-2.4,1-.32c2.39-.76,4.78-1.52,7.18-2.3l1.28-.41q3.93-1.28,7.89-2.6l1.3-.44q3.72-1.23,7.45-2.52l.86-.29q4-1.38,8.07-2.81l1.52-.54q4-1.42,8.11-2.9l.08,0c2.75-1,5.52-2,8.29-3l1.57-.59c2.78-1,5.57-2.09,8.36-3.17h0c2.76-1.06,5.52-2.14,8.3-3.23l1.52-.6,8.36-3.35.84-.35q3.9-1.59,7.8-3.22l1.38-.57c2.78-1.16,5.57-2.35,8.37-3.55l1.3-.56q3.87-1.66,7.75-3.38l1.06-.47q4.2-1.86,8.4-3.77l1.57-.72c2.71-1.24,5.43-2.49,8.14-3.76l.43-.2q4.23-2,8.48-4l1.68-.82q8.49-4.11,17-8.44l1.71-.87q4.19-2.14,8.38-4.36l.91-.48c2.57-1.35,5.13-2.73,7.7-4.11.33-.19.67-.36,1-.55l0,0a777.55,777.55,0,0,0,84.83-53.19c-72.56-75.73-125.8-168.31-152.34-270.81-12.2-38.35-19-80.3-19-126.21,0-129-104.62-233.66-233.66-233.66-105.95,0-195.41,70.52-224,167.17L183.84,1833.73c-45.59,120.73,15.32,255.55,136,301.14s255.55-15.32,301.14-136l152.06-402.69h0l2-5.18,6.28-1.39Z" />
    </g>
</svg>