
<svg version="1.0" xmlns="http://www.w3.org/2000/svg"
 width="40.000000pt" height="40.000000pt" viewBox="0 0 2765.000000 2776.000000"
 preserveAspectRatio="xMidYMid meet">
<g transform="translate(0.000000,2776.000000) scale(0.100000,-0.100000)"
fill="#e71f58" stroke="currentColor">
<path d="M5546 21921 l-4049 -4049 -4 -403 -4 -402 168 161 c92 88 1153 1146
2358 2351 l2189 2190 -2 38 c-4 51 31 103 82 122 33 13 44 13 79 0 93 -32 115
-140 43 -206 -30 -28 -43 -33 -83 -33 l-47 0 -2393 -2395 -2393 -2394 0 -443
0 -443 2095 2095 c2052 2052 2095 2096 2095 2133 0 50 23 93 62 113 65 33 143
11 172 -50 20 -42 20 -67 1 -112 -16 -40 -88 -79 -127 -69 -20 5 -315 -286
-2161 -2132 l-2137 -2138 2 -437 3 -437 1838 1831 c1611 1605 1837 1833 1837
1859 0 38 22 89 48 113 12 10 41 21 65 23 81 9 137 -42 137 -125 0 -70 -70
-130 -139 -118 l-36 6 -1877 -1878 -1878 -1877 0 -438 0 -439 1575 1568 1575
1568 0 48 c0 101 108 161 190 106 49 -33 69 -91 49 -144 -19 -50 -69 -84 -123
-84 l-41 0 -1613 -1613 -1612 -1612 0 -445 0 -445 1055 1055 1055 1055 0 47
c0 111 132 166 208 85 52 -55 48 -134 -9 -181 -23 -20 -42 -26 -77 -26 l-47 0
-1093 -1093 -1092 -1092 0 -445 0 -445 1055 1055 1055 1055 0 47 c0 118 144
167 218 74 32 -41 37 -80 15 -123 -26 -52 -64 -77 -118 -78 l-45 0 -1090
-1090 -1090 -1090 0 -445 0 -445 1055 1055 1055 1055 0 47 c0 39 5 52 34 82
30 32 39 36 84 36 60 0 104 -31 122 -84 27 -83 -45 -173 -131 -164 -27 3 -116
-84 -1124 -1092 l-1095 -1095 0 -440 0 -440 1055 1055 c1030 1030 1055 1056
1055 1093 0 78 50 127 129 127 50 0 96 -37 110 -88 24 -86 -40 -168 -125 -160
-33 2 -66 -29 -1129 -1092 l-1095 -1095 0 -440 0 -440 1055 1055 c1030 1030
1055 1056 1055 1093 0 98 93 157 179 113 57 -30 83 -116 52 -174 -18 -34 -70
-62 -116 -62 -40 0 -47 -7 -1132 -1092 l-1093 -1093 0 -440 0 -440 1055 1055
c1034 1034 1055 1056 1055 1093 0 50 25 93 66 112 101 48 203 -39 173 -147
-14 -54 -60 -88 -117 -88 l-47 0 -1092 -1092 -1093 -1093 0 -445 0 -445 1055
1055 1055 1055 0 46 c0 68 57 129 120 129 78 0 143 -87 121 -161 -17 -55 -62
-89 -119 -89 l-47 0 -1092 -1092 -1093 -1093 0 -445 0 -445 1055 1055 1055
1055 0 47 c0 118 144 167 218 74 32 -41 37 -80 15 -123 -26 -52 -64 -77 -118
-78 l-45 0 -1090 -1090 -1090 -1090 0 -445 0 -445 1055 1055 1055 1055 0 47
c0 39 5 52 34 82 30 32 39 36 84 36 60 0 104 -31 122 -84 27 -83 -45 -173
-131 -164 -27 3 -116 -84 -1124 -1092 l-1095 -1095 0 -440 0 -440 1055 1055
c1030 1030 1055 1056 1055 1093 0 78 50 127 129 127 50 0 96 -37 110 -88 24
-86 -40 -168 -125 -160 -33 2 -66 -29 -1129 -1092 l-1095 -1095 0 -440 0 -440
1055 1055 c1030 1030 1055 1056 1055 1093 0 105 105 162 191 104 102 -68 49
-227 -75 -227 l-41 0 -1093 -1093 -1092 -1092 0 -405 0 -405 4055 4055 4054
4054 1 8178 c0 4498 -1 8178 -2 8178 -2 0 -1825 -1822 -4052 -4049z"/>
<path d="M9821 17793 l-1 -8178 4055 -4055 4055 -4055 0 8184 0 8184 -4047
4048 c-2226 2227 -4050 4049 -4054 4049 -4 0 -8 -3680 -8 -8177z"/>
<path d="M22214 21918 l-4052 -4053 -6 -405 -6 -405 177 175 c98 96 1160 1156
2361 2355 l2182 2180 0 48 c0 42 5 54 33 82 44 44 94 54 144 28 76 -40 92
-130 34 -195 -23 -26 -37 -32 -82 -36 l-54 -4 -2398 -2397 -2397 -2396 2 -440
3 -440 2098 2095 2097 2094 0 48 c0 144 200 166 241 27 22 -73 -42 -152 -123
-152 l-43 0 -2138 -2136 -2138 -2136 3 -447 3 -447 1842 1837 1842 1837 4 54
c4 48 9 59 41 88 29 27 44 33 81 33 96 0 156 -108 105 -188 -23 -38 -81 -66
-120 -59 -24 5 -198 -166 -1913 -1881 l-1887 -1887 0 -435 0 -435 1580 1580
c1364 1363 1580 1583 1575 1603 -10 39 29 111 69 127 45 19 70 19 110 0 41
-20 66 -63 66 -112 -1 -72 -53 -123 -125 -123 -40 0 -47 -7 -1658 -1618
l-1617 -1617 0 -440 0 -440 1059 1059 c972 972 1059 1062 1054 1087 -6 33 20
92 51 112 36 24 81 29 117 14 48 -20 71 -50 76 -100 9 -81 -42 -137 -124 -137
-37 0 -64 -26 -1136 -1098 l-1097 -1097 0 -440 0 -440 1058 1058 1057 1057 1
43 c1 56 26 92 78 112 35 14 47 14 81 3 80 -27 113 -133 60 -197 -29 -34 -84
-56 -116 -46 -19 6 -175 -146 -1120 -1091 l-1099 -1099 0 -445 0 -445 1060
1060 c903 903 1058 1063 1054 1082 -9 33 14 89 47 118 23 18 42 25 75 25 76 0
124 -49 124 -128 0 -68 -70 -130 -135 -119 -31 5 -66 -29 -1128 -1091 l-1097
-1097 0 -445 0 -445 1060 1060 c903 903 1058 1063 1054 1082 -16 64 49 143
117 143 80 0 129 -49 129 -130 0 -32 -7 -48 -34 -77 -30 -34 -40 -38 -87 -39
l-52 -2 -1094 -1094 -1093 -1093 0 -445 0 -445 1059 1059 c961 961 1059 1062
1054 1086 -18 93 103 173 187 124 109 -65 61 -234 -67 -234 -37 0 -59 -21
-1136 -1098 l-1097 -1097 0 -440 0 -440 1059 1059 c972 972 1059 1062 1054
1087 -7 37 23 97 61 121 76 47 186 -13 186 -102 0 -80 -49 -130 -127 -130 -37
0 -64 -26 -1136 -1098 l-1097 -1097 0 -440 0 -440 1059 1059 c1010 1010 1059
1061 1055 1090 -7 43 24 96 70 119 49 26 99 16 143 -28 27 -27 33 -41 33 -74
0 -81 -47 -131 -122 -131 l-43 0 -1098 -1098 -1097 -1097 0 -440 0 -440 1058
1058 1057 1057 1 43 c1 56 26 92 78 112 35 14 47 14 81 3 80 -27 113 -133 60
-197 -29 -34 -84 -56 -116 -46 -19 6 -175 -146 -1120 -1091 l-1099 -1099 0
-445 0 -445 1060 1060 c903 903 1058 1063 1054 1082 -9 33 14 89 47 118 23 18
42 25 75 25 76 0 124 -49 124 -128 0 -68 -70 -130 -135 -119 -31 5 -66 -29
-1128 -1091 l-1097 -1097 0 -445 0 -445 1060 1060 c903 903 1058 1063 1054
1082 -16 64 49 143 117 143 80 0 129 -49 129 -130 0 -32 -7 -48 -34 -77 -30
-34 -40 -38 -87 -39 l-52 -2 -1094 -1094 -1093 -1093 0 -445 0 -445 1059 1059
c961 961 1059 1062 1054 1086 -7 39 21 97 59 120 85 52 187 -4 188 -103 0 -77
-50 -127 -127 -127 -37 0 -64 -26 -1136 -1098 l-1097 -1097 0 -398 0 -399
4059 4053 4059 4052 1 8179 c1 4498 1 8178 -1 8178 -2 0 -1826 -1824 -4054
-4052z"/>
</g>
</svg>
